# xmcd
#
# Track frame offsets: 
#        150
#        20902
#        42222
#        67257
#        87377
#        106145
#        123145
#        139830
#        162045
#        185250
#        194657
#        219140
#        233647
#        245145
#        261615
#        283515
#        304472
#        323382
#        341032
#
# Disc length: 4705 seconds
#
# Revision: 1
# Processed by: cddbd v1.5.2PL0 Copyright (c) Steve Scherf et al.
# Submitted via: ExactAudioCopy v0.99pb5
#
DISCID=1d125f13
DTITLE=Jazz - I Love Jazz Vo.1 [Disc 1]
DYEAR=2004
DGENRE=Jazz
TTITLE0=Larry Carlton - Sleep Walk
TTITLE1=Shakatak - Easier Said Than Done
TTITLE2=Fourplay - Bali Run'
TTITLE3=Lee Ritenour - Is It You
TTITLE4=Charlie Hunter feat. Norah Jones - More Than This
TTITLE5=St. German - Sure Thing
TTITLE6=US3 - Cantoop (Flip Fantasia)
TTITLE7=Buddy Rich - The Beat Goes On
TTITLE8=Jose Feliciano - Minnie Riperton - Light My Fire
TTITLE9=Bill Withers - Ain't No Sunshine
TTITLE10=Cassandra Wilson - I Can't Stand The Rain
TTITLE11=Louis Armstrong - We Have All The Time In The World
TTITLE12=Julie London - Fly Me To The Moon
TTITLE13=Billy Taylor - I Wish I Knew How It Would Feel To Be Free
TTITLE14=Ronnie Laws - Always There
TTITLE15=Paul Jackson Jr. feat. Earic Dawkins - Inner City Blues
TTITLE16=Earl Klugh - I Heard It Through The Grapevine
TTITLE17=Bobby McFerrin - Don't Worry Be Happy
TTITLE18=Nat King Cole - Nature Boy
EXTD=YEAR: 2004
EXTT0=
EXTT1=
EXTT2=
EXTT3=
EXTT4=
EXTT5=
EXTT6=
EXTT7=
EXTT8=
EXTT9=
EXTT10=
EXTT11=
EXTT12=
EXTT13=
EXTT14=
EXTT15=
EXTT16=
EXTT17=
EXTT18=
PLAYORDER=
